<svg width="60" height="60" viewBox="0 0 60 60" fill="none" xmlns="http://www.w3.org/2000/svg">
<path d="M16.25 50C12.4583 50 9.21917 48.6875 6.5325 46.0625C3.84417 43.4375 2.5 40.2292 2.5 36.4375C2.5 33.1875 3.47917 30.2917 5.4375 27.75C7.39583 25.2083 9.95833 23.5833 13.125 22.875C14.0833 19.5 15.865 16.6667 18.47 14.375C21.0733 12.0833 24.0833 10.6875 27.5 10.1875V30.375L25.25 28.1875C24.7917 27.7292 24.2192 27.5 23.5325 27.5C22.8442 27.5 22.25 27.75 21.75 28.25C21.2917 28.7083 21.0625 29.2917 21.0625 30C21.0625 30.7083 21.2917 31.2917 21.75 31.75L28.25 38.25C28.75 38.75 29.3333 39 30 39C30.6667 39 31.25 38.75 31.75 38.25L38.25 31.75C38.7083 31.2917 38.9483 30.7183 38.97 30.03C38.99 29.3433 38.75 28.75 38.25 28.25C37.7917 27.7917 37.2192 27.5517 36.5325 27.53C35.8442 27.51 35.25 27.7292 34.75 28.1875L32.5 30.375V10.1875C36.7917 10.7708 40.365 12.6975 43.22 15.9675C46.0733 19.2392 47.5 23.0833 47.5 27.5C50.375 27.8333 52.7608 29.0725 54.6575 31.2175C56.5525 33.3642 57.5 35.875 57.5 38.75C57.5 41.875 56.4067 44.5317 54.22 46.72C52.0317 48.9067 49.375 50 46.25 50H16.25Z" fill="black"/>
</svg>
